<svg width="140" height="29" viewBox="0 0 140 29" fill="none" xmlns="http://www.w3.org/2000/svg">
<g clip-path="url(#clip0_1515_662)">
<path d="M21.74 14.8C22.5533 14.9733 23.2067 15.38 23.7 16.02C24.1933 16.6467 24.44 17.3667 24.44 18.18C24.44 19.3533 24.0267 20.2867 23.2 20.98C22.3867 21.66 21.2467 22 19.78 22H13.24V7.96H19.56C20.9867 7.96 22.1 8.28667 22.9 8.94C23.7133 9.59333 24.12 10.48 24.12 11.6C24.12 12.4267 23.9 13.1133 23.46 13.66C23.0333 14.2067 22.46 14.5867 21.74 14.8ZM16.66 13.64H18.9C19.46 13.64 19.8867 13.52 20.18 13.28C20.4867 13.0267 20.64 12.66 20.64 12.18C20.64 11.7 20.4867 11.3333 20.18 11.08C19.8867 10.8267 19.46 10.7 18.9 10.7H16.66V13.64ZM19.18 19.24C19.7533 19.24 20.1933 19.1133 20.5 18.86C20.82 18.5933 20.98 18.2133 20.98 17.72C20.98 17.2267 20.8133 16.84 20.48 16.56C20.16 16.28 19.7133 16.14 19.14 16.14H16.66V19.24H19.18ZM36.9436 16.24C36.9436 16.56 36.9236 16.8933 36.8836 17.24H29.1436C29.1969 17.9333 29.4169 18.4667 29.8036 18.84C30.2036 19.2 30.6903 19.38 31.2636 19.38C32.1169 19.38 32.7103 19.02 33.0436 18.3H36.6836C36.4969 19.0333 36.1569 19.6933 35.6636 20.28C35.1836 20.8667 34.5769 21.3267 33.8436 21.66C33.1103 21.9933 32.2903 22.16 31.3836 22.16C30.2903 22.16 29.3169 21.9267 28.4636 21.46C27.6103 20.9933 26.9436 20.3267 26.4636 19.46C25.9836 18.5933 25.7436 17.58 25.7436 16.42C25.7436 15.26 25.9769 14.2467 26.4436 13.38C26.9236 12.5133 27.5903 11.8467 28.4436 11.38C29.2969 10.9133 30.2769 10.68 31.3836 10.68C32.4636 10.68 33.4236 10.9067 34.2636 11.36C35.1036 11.8133 35.7569 12.46 36.2236 13.3C36.7036 14.14 36.9436 15.12 36.9436 16.24ZM33.4436 15.34C33.4436 14.7533 33.2436 14.2867 32.8436 13.94C32.4436 13.5933 31.9436 13.42 31.3436 13.42C30.7703 13.42 30.2836 13.5867 29.8836 13.92C29.4969 14.2533 29.2569 14.7267 29.1636 15.34H33.4436ZM42.1678 12.42C42.4878 11.9 42.9478 11.48 43.5478 11.16C44.1478 10.84 44.8345 10.68 45.6078 10.68C46.5278 10.68 47.3611 10.9133 48.1078 11.38C48.8545 11.8467 49.4411 12.5133 49.8678 13.38C50.3078 14.2467 50.5278 15.2533 50.5278 16.4C50.5278 17.5467 50.3078 18.56 49.8678 19.44C49.4411 20.3067 48.8545 20.98 48.1078 21.46C47.3611 21.9267 46.5278 22.16 45.6078 22.16C44.8211 22.16 44.1345 22.0067 43.5478 21.7C42.9611 21.38 42.5011 20.96 42.1678 20.44V22H38.7478V7.2H42.1678V12.42ZM47.0478 16.4C47.0478 15.5467 46.8078 14.88 46.3278 14.4C45.8611 13.9067 45.2811 13.66 44.5878 13.66C43.9078 13.66 43.3278 13.9067 42.8478 14.4C42.3811 14.8933 42.1478 15.5667 42.1478 16.42C42.1478 17.2733 42.3811 17.9467 42.8478 18.44C43.3278 18.9333 43.9078 19.18 44.5878 19.18C45.2678 19.18 45.8478 18.9333 46.3278 18.44C46.8078 17.9333 47.0478 17.2533 47.0478 16.4ZM54.042 9.68C53.442 9.68 52.9487 9.50667 52.562 9.16C52.1887 8.8 52.002 8.36 52.002 7.84C52.002 7.30667 52.1887 6.86667 52.562 6.52C52.9487 6.16 53.442 5.98 54.042 5.98C54.6287 5.98 55.1087 6.16 55.482 6.52C55.8687 6.86667 56.062 7.30667 56.062 7.84C56.062 8.36 55.8687 8.8 55.482 9.16C55.1087 9.50667 54.6287 9.68 54.042 9.68ZM55.742 10.84V22H52.322V10.84H55.742ZM59.9405 9.68C59.3405 9.68 58.8471 9.50667 58.4605 9.16C58.0871 8.8 57.9005 8.36 57.9005 7.84C57.9005 7.30667 58.0871 6.86667 58.4605 6.52C58.8471 6.16 59.3405 5.98 59.9405 5.98C60.5271 5.98 61.0071 6.16 61.3805 6.52C61.7671 6.86667 61.9605 7.30667 61.9605 7.84C61.9605 8.36 61.7671 8.8 61.3805 9.16C61.0071 9.50667 60.5271 9.68 59.9405 9.68ZM61.6405 10.84V22H58.2205V10.84H61.6405ZM73.6172 7.96C75.0972 7.96 76.3905 8.25333 77.4972 8.84C78.6039 9.42667 79.4572 10.2533 80.0572 11.32C80.6705 12.3733 80.9772 13.5933 80.9772 14.98C80.9772 16.3533 80.6705 17.5733 80.0572 18.64C79.4572 19.7067 78.5972 20.5333 77.4772 21.12C76.3705 21.7067 75.0839 22 73.6172 22H68.3572V7.96H73.6172ZM73.3972 19.04C74.6905 19.04 75.6972 18.6867 76.4172 17.98C77.1372 17.2733 77.4972 16.2733 77.4972 14.98C77.4972 13.6867 77.1372 12.68 76.4172 11.96C75.6972 11.24 74.6905 10.88 73.3972 10.88H71.7772V19.04H73.3972ZM84.6084 9.68C84.0084 9.68 83.5151 9.50667 83.1284 9.16C82.7551 8.8 82.5684 8.36 82.5684 7.84C82.5684 7.30667 82.7551 6.86667 83.1284 6.52C83.5151 6.16 84.0084 5.98 84.6084 5.98C85.1951 5.98 85.6751 6.16 86.0484 6.52C86.4351 6.86667 86.6284 7.30667 86.6284 7.84C86.6284 8.36 86.4351 8.8 86.0484 9.16C85.6751 9.50667 85.1951 9.68 84.6084 9.68ZM86.3084 10.84V22H82.8884V10.84H86.3084ZM93.0269 10.68C93.8135 10.68 94.5002 10.84 95.0869 11.16C95.6869 11.48 96.1469 11.9 96.4669 12.42V10.84H99.8869V21.98C99.8869 23.0067 99.6802 23.9333 99.2669 24.76C98.8669 25.6 98.2469 26.2667 97.4069 26.76C96.5802 27.2533 95.5469 27.5 94.3069 27.5C92.6535 27.5 91.3135 27.1067 90.2869 26.32C89.2602 25.5467 88.6735 24.4933 88.5269 23.16H91.9069C92.0135 23.5867 92.2669 23.92 92.6669 24.16C93.0669 24.4133 93.5602 24.54 94.1469 24.54C94.8535 24.54 95.4135 24.3333 95.8269 23.92C96.2535 23.52 96.4669 22.8733 96.4669 21.98V20.4C96.1335 20.92 95.6735 21.3467 95.0869 21.68C94.5002 22 93.8135 22.16 93.0269 22.16C92.1069 22.16 91.2735 21.9267 90.5269 21.46C89.7802 20.98 89.1869 20.3067 88.7469 19.44C88.3202 18.56 88.1069 17.5467 88.1069 16.4C88.1069 15.2533 88.3202 14.2467 88.7469 13.38C89.1869 12.5133 89.7802 11.8467 90.5269 11.38C91.2735 10.9133 92.1069 10.68 93.0269 10.68ZM96.4669 16.42C96.4669 15.5667 96.2269 14.8933 95.7469 14.4C95.2802 13.9067 94.7069 13.66 94.0269 13.66C93.3469 13.66 92.7669 13.9067 92.2869 14.4C91.8202 14.88 91.5869 15.5467 91.5869 16.4C91.5869 17.2533 91.8202 17.9333 92.2869 18.44C92.7669 18.9333 93.3469 19.18 94.0269 19.18C94.7069 19.18 95.2802 18.9333 95.7469 18.44C96.2269 17.9467 96.4669 17.2733 96.4669 16.42ZM104.081 9.68C103.481 9.68 102.988 9.50667 102.601 9.16C102.228 8.8 102.041 8.36 102.041 7.84C102.041 7.30667 102.228 6.86667 102.601 6.52C102.988 6.16 103.481 5.98 104.081 5.98C104.668 5.98 105.148 6.16 105.521 6.52C105.908 6.86667 106.101 7.30667 106.101 7.84C106.101 8.36 105.908 8.8 105.521 9.16C105.148 9.50667 104.668 9.68 104.081 9.68ZM105.781 10.84V22H102.361V10.84H105.781ZM114.48 19.1V22H112.74C111.5 22 110.533 21.7 109.84 21.1C109.146 20.4867 108.8 19.4933 108.8 18.12V13.68H107.44V10.84H108.8V8.12H112.22V10.84H114.46V13.68H112.22V18.16C112.22 18.4933 112.3 18.7333 112.46 18.88C112.62 19.0267 112.886 19.1 113.26 19.1H114.48ZM115.705 16.4C115.705 15.2533 115.918 14.2467 116.345 13.38C116.785 12.5133 117.378 11.8467 118.125 11.38C118.871 10.9133 119.705 10.68 120.625 10.68C121.411 10.68 122.098 10.84 122.685 11.16C123.285 11.48 123.745 11.9 124.065 12.42V10.84H127.485V22H124.065V20.42C123.731 20.94 123.265 21.36 122.665 21.68C122.078 22 121.391 22.16 120.605 22.16C119.698 22.16 118.871 21.9267 118.125 21.46C117.378 20.98 116.785 20.3067 116.345 19.44C115.918 18.56 115.705 17.5467 115.705 16.4ZM124.065 16.42C124.065 15.5667 123.825 14.8933 123.345 14.4C122.878 13.9067 122.305 13.66 121.625 13.66C120.945 13.66 120.365 13.9067 119.885 14.4C119.418 14.88 119.185 15.5467 119.185 16.4C119.185 17.2533 119.418 17.9333 119.885 18.44C120.365 18.9333 120.945 19.18 121.625 19.18C122.305 19.18 122.878 18.9333 123.345 18.44C123.825 17.9467 124.065 17.2733 124.065 16.42ZM133.379 7.2V22H129.959V7.2H133.379Z" fill="black"/>
</g>
<defs>
<clipPath id="clip0_1515_662">
<rect width="140" height="29" fill="white"/>
</clipPath>
</defs>
</svg>
