<svg width="91" height="29" viewBox="0 0 91 29" fill="none" xmlns="http://www.w3.org/2000/svg">
<g clip-path="url(#clip0_1515_662)">
<path d="M23.8973 12.1608C22.8367 6.74373 17.5793 3.20801 12.1622 4.26865C6.74507 5.32929 3.20936 10.5866 4.26999 16.0037C5.33063 21.4209 10.5879 24.9566 16.0051 23.8959C21.4222 22.8353 24.9579 17.578 23.8973 12.1608ZM19.5329 18.6504L10.4734 12.5576L11.0537 15.5213C11.1325 15.9236 10.8641 16.3226 10.4618 16.4014C10.0594 16.4802 9.66043 16.2119 9.58165 15.8095L8.65359 11.0695C8.57481 10.6671 8.84315 10.2681 9.24551 10.1894L13.9855 9.26135C14.3879 9.18257 14.7868 9.4509 14.8656 9.85326C14.9444 10.2556 14.6761 10.6546 14.2737 10.7334L11.31 11.3136L20.3695 17.4064C20.5455 17.5248 20.6507 17.6978 20.6872 17.8843C20.7237 18.0707 20.6915 18.2707 20.5732 18.4467C20.3443 18.787 19.8732 18.8792 19.5329 18.6504Z" fill="black"/>
<path d="M32.2017 23V4.81818H38.5582C39.8248 4.81818 40.8694 5.03717 41.6921 5.47514C42.5148 5.9072 43.1274 6.49017 43.5298 7.22408C43.9323 7.95206 44.1335 8.75994 44.1335 9.64773C44.1335 10.429 43.9944 11.0741 43.7163 11.5831C43.444 12.0921 43.083 12.4946 42.6332 12.7905C42.1893 13.0864 41.7069 13.3054 41.1861 13.4474V13.625C41.7424 13.6605 42.3017 13.8558 42.864 14.2109C43.4263 14.5661 43.8968 15.075 44.2756 15.7379C44.6544 16.4008 44.8438 17.2116 44.8438 18.1705C44.8438 19.0819 44.6366 19.9016 44.2223 20.6296C43.808 21.3576 43.154 21.9347 42.2603 22.3608C41.3666 22.7869 40.2036 23 38.7713 23H32.2017ZM34.4034 21.0469H38.7713C40.2095 21.0469 41.2305 20.7687 41.8342 20.2124C42.4438 19.6501 42.7486 18.9695 42.7486 18.1705C42.7486 17.5549 42.5917 16.9867 42.2781 16.4659C41.9644 15.9392 41.5175 15.5189 40.9375 15.2053C40.3575 14.8857 39.6709 14.7259 38.8778 14.7259H34.4034V21.0469ZM34.4034 12.8082H38.4872C39.1501 12.8082 39.7479 12.678 40.2805 12.4176C40.8191 12.1572 41.2453 11.7902 41.5589 11.3168C41.8786 10.8433 42.0384 10.2869 42.0384 9.64773C42.0384 8.84872 41.7602 8.17105 41.2038 7.6147C40.6475 7.05244 39.7656 6.77131 38.5582 6.77131H34.4034V12.8082ZM53.8947 23.2841C52.5808 23.2841 51.4474 22.9941 50.4945 22.4141C49.5475 21.8281 48.8166 21.0114 48.3017 19.9638C47.7927 18.9103 47.5382 17.6851 47.5382 16.2884C47.5382 14.8916 47.7927 13.6605 48.3017 12.5952C48.8166 11.5239 49.5327 10.6894 50.4501 10.0916C51.3734 9.48793 52.4506 9.18608 53.6816 9.18608C54.3919 9.18608 55.0932 9.30445 55.7857 9.54119C56.4782 9.77793 57.1085 10.1626 57.6767 10.6953C58.2449 11.2221 58.6976 11.9205 59.035 12.7905C59.3723 13.6605 59.541 14.7318 59.541 16.0043V16.892H49.0297V15.081H57.4103C57.4103 14.3116 57.2565 13.625 56.9487 13.0213C56.6468 12.4176 56.2148 11.9412 55.6525 11.592C55.0962 11.2428 54.4392 11.0682 53.6816 11.0682C52.8471 11.0682 52.1251 11.2753 51.5154 11.6896C50.9118 12.098 50.4471 12.6307 50.1216 13.2876C49.7961 13.9446 49.6333 14.6489 49.6333 15.4006V16.608C49.6333 17.6378 49.8109 18.5108 50.166 19.2269C50.527 19.9371 51.0272 20.4787 51.6664 20.8516C52.3056 21.2185 53.0484 21.402 53.8947 21.402C54.4451 21.402 54.9423 21.325 55.3862 21.1712C55.836 21.0114 56.2237 20.7746 56.5492 20.4609C56.8747 20.1413 57.1262 19.7448 57.3038 19.2713L59.3279 19.8395C59.1149 20.526 58.7568 21.1297 58.2537 21.6506C57.7507 22.1655 57.1292 22.5679 56.3894 22.858C55.6496 23.142 54.818 23.2841 53.8947 23.2841ZM63.0123 23V4.81818H65.1074V11.5298H65.285C65.4389 11.2931 65.6519 10.9912 65.9242 10.6243C66.2024 10.2514 66.5989 9.91998 67.1138 9.62997C67.6346 9.33404 68.339 9.18608 69.2267 9.18608C70.3749 9.18608 71.387 9.47313 72.263 10.0472C73.1389 10.6213 73.8225 11.4351 74.3137 12.4886C74.805 13.5421 75.0506 14.785 75.0506 16.2173C75.0506 17.6615 74.805 18.9132 74.3137 19.9727C73.8225 21.0262 73.1419 21.8429 72.2718 22.4229C71.4018 22.997 70.3986 23.2841 69.2623 23.2841C68.3863 23.2841 67.685 23.1391 67.1582 22.8491C66.6315 22.5531 66.226 22.2187 65.9419 21.8459C65.6578 21.4671 65.4389 21.1534 65.285 20.9048H65.0364V23H63.0123ZM65.0719 16.1818C65.0719 17.2116 65.2228 18.1201 65.5247 18.9073C65.8265 19.6886 66.2675 20.3011 66.8475 20.745C67.4275 21.183 68.1377 21.402 68.9782 21.402C69.8541 21.402 70.585 21.1712 71.171 20.7095C71.7628 20.242 72.2067 19.6146 72.5027 18.8274C72.8045 18.0343 72.9554 17.1525 72.9554 16.1818C72.9554 15.223 72.8075 14.3589 72.5115 13.5895C72.2215 12.8142 71.7806 12.2016 71.1887 11.7518C70.6028 11.296 69.8659 11.0682 68.9782 11.0682C68.1259 11.0682 67.4097 11.2842 66.8297 11.7163C66.2497 12.1424 65.8117 12.7402 65.5158 13.5096C65.2199 14.2731 65.0719 15.1638 65.0719 16.1818ZM78.2555 23V9.36364H80.3507V23H78.2555ZM79.3208 7.09091C78.9125 7.09091 78.5603 6.95182 78.2644 6.67365C77.9744 6.39548 77.8294 6.06108 77.8294 5.67045C77.8294 5.27983 77.9744 4.94543 78.2644 4.66726C78.5603 4.38909 78.9125 4.25 79.3208 4.25C79.7292 4.25 80.0784 4.38909 80.3684 4.66726C80.6644 4.94543 80.8123 5.27983 80.8123 5.67045C80.8123 6.06108 80.6644 6.39548 80.3684 6.67365C80.0784 6.95182 79.7292 7.09091 79.3208 7.09091ZM84.1881 23V9.36364H86.2833V23H84.1881ZM85.2535 7.09091C84.8451 7.09091 84.4929 6.95182 84.197 6.67365C83.907 6.39548 83.762 6.06108 83.762 5.67045C83.762 5.27983 83.907 4.94543 84.197 4.66726C84.4929 4.38909 84.8451 4.25 85.2535 4.25C85.6618 4.25 86.011 4.38909 86.301 4.66726C86.597 4.94543 86.7449 5.27983 86.7449 5.67045C86.7449 6.06108 86.597 6.39548 86.301 6.67365C86.011 6.95182 85.6618 7.09091 85.2535 7.09091Z" fill="black"/>
</g>
<defs>
<clipPath id="clip0_1515_662">
<rect width="91" height="29" fill="white"/>
</clipPath>
</defs>
</svg>
