<svg width="140" height="29" viewBox="0 0 140 29" fill="none" xmlns="http://www.w3.org/2000/svg">
<g clip-path="url(#clip0_1515_662)">
<path d="M20.52 14.82C21.0267 14.9 21.4867 15.1067 21.9 15.44C22.3267 15.7733 22.66 16.1867 22.9 16.68C23.1533 17.1733 23.28 17.7 23.28 18.26C23.28 18.9667 23.1 19.6067 22.74 20.18C22.38 20.74 21.8533 21.1867 21.16 21.52C20.48 21.84 19.6733 22 18.74 22H13.54V8.06H18.54C19.4867 8.06 20.2933 8.22 20.96 8.54C21.6267 8.84667 22.1267 9.26667 22.46 9.8C22.7933 10.3333 22.96 10.9333 22.96 11.6C22.96 12.4267 22.7333 13.1133 22.28 13.66C21.84 14.1933 21.2533 14.58 20.52 14.82ZM15.36 14.08H18.42C19.2733 14.08 19.9333 13.88 20.4 13.48C20.8667 13.08 21.1 12.5267 21.1 11.82C21.1 11.1133 20.8667 10.56 20.4 10.16C19.9333 9.76 19.26 9.56 18.38 9.56H15.36V14.08ZM18.58 20.5C19.4867 20.5 20.1933 20.2867 20.7 19.86C21.2067 19.4333 21.46 18.84 21.46 18.08C21.46 17.3067 21.1933 16.7 20.66 16.26C20.1267 15.8067 19.4133 15.58 18.52 15.58H15.36V20.5H18.58ZM35.8056 16.1C35.8056 16.4467 35.7856 16.8133 35.7456 17.2H26.9856C27.0523 18.28 27.419 19.1267 28.0856 19.74C28.7656 20.34 29.5856 20.64 30.5456 20.64C31.3323 20.64 31.9856 20.46 32.5056 20.1C33.039 19.7267 33.4123 19.2333 33.6256 18.62H35.5856C35.2923 19.6733 34.7056 20.5333 33.8256 21.2C32.9456 21.8533 31.8523 22.18 30.5456 22.18C29.5056 22.18 28.5723 21.9467 27.7456 21.48C26.9323 21.0133 26.2923 20.3533 25.8256 19.5C25.359 18.6333 25.1256 17.6333 25.1256 16.5C25.1256 15.3667 25.3523 14.3733 25.8056 13.52C26.259 12.6667 26.8923 12.0133 27.7056 11.56C28.5323 11.0933 29.479 10.86 30.5456 10.86C31.5856 10.86 32.5056 11.0867 33.3056 11.54C34.1056 11.9933 34.719 12.62 35.1456 13.42C35.5856 14.2067 35.8056 15.1 35.8056 16.1ZM33.9256 15.72C33.9256 15.0267 33.7723 14.4333 33.4656 13.94C33.159 13.4333 32.739 13.0533 32.2056 12.8C31.6856 12.5333 31.1056 12.4 30.4656 12.4C29.5456 12.4 28.759 12.6933 28.1056 13.28C27.4656 13.8667 27.099 14.68 27.0056 15.72H33.9256ZM40.028 13.08C40.4013 12.4267 40.948 11.8933 41.668 11.48C42.388 11.0667 43.208 10.86 44.128 10.86C45.1146 10.86 46.0013 11.0933 46.788 11.56C47.5746 12.0267 48.1946 12.6867 48.648 13.54C49.1013 14.38 49.328 15.36 49.328 16.48C49.328 17.5867 49.1013 18.5733 48.648 19.44C48.1946 20.3067 47.568 20.98 46.768 21.46C45.9813 21.94 45.1013 22.18 44.128 22.18C43.1813 22.18 42.348 21.9733 41.628 21.56C40.9213 21.1467 40.388 20.62 40.028 19.98V22H38.208V7.2H40.028V13.08ZM47.468 16.48C47.468 15.6533 47.3013 14.9333 46.968 14.32C46.6346 13.7067 46.1813 13.24 45.608 12.92C45.048 12.6 44.428 12.44 43.748 12.44C43.0813 12.44 42.4613 12.6067 41.888 12.94C41.328 13.26 40.8746 13.7333 40.528 14.36C40.1946 14.9733 40.028 15.6867 40.028 16.5C40.028 17.3267 40.1946 18.0533 40.528 18.68C40.8746 19.2933 41.328 19.7667 41.888 20.1C42.4613 20.42 43.0813 20.58 43.748 20.58C44.428 20.58 45.048 20.42 45.608 20.1C46.1813 19.7667 46.6346 19.2933 46.968 18.68C47.3013 18.0533 47.468 17.32 47.468 16.48ZM52.6636 9.26C52.3169 9.26 52.0236 9.14 51.7836 8.9C51.5436 8.66 51.4236 8.36667 51.4236 8.02C51.4236 7.67333 51.5436 7.38 51.7836 7.14C52.0236 6.9 52.3169 6.78 52.6636 6.78C52.9969 6.78 53.2769 6.9 53.5036 7.14C53.7436 7.38 53.8636 7.67333 53.8636 8.02C53.8636 8.36667 53.7436 8.66 53.5036 8.9C53.2769 9.14 52.9969 9.26 52.6636 9.26ZM53.5436 11.04V22H51.7236V11.04H53.5436ZM57.5855 9.26C57.2388 9.26 56.9455 9.14 56.7055 8.9C56.4655 8.66 56.3455 8.36667 56.3455 8.02C56.3455 7.67333 56.4655 7.38 56.7055 7.14C56.9455 6.9 57.2388 6.78 57.5855 6.78C57.9188 6.78 58.1988 6.9 58.4255 7.14C58.6655 7.38 58.7855 7.67333 58.7855 8.02C58.7855 8.36667 58.6655 8.66 58.4255 8.9C58.1988 9.14 57.9188 9.26 57.5855 9.26ZM58.4655 11.04V22H56.6455V11.04H58.4655ZM71.2394 8.06C72.7594 8.06 74.0727 8.34667 75.1794 8.92C76.2994 9.48 77.1527 10.2867 77.7394 11.34C78.3394 12.3933 78.6394 13.6333 78.6394 15.06C78.6394 16.4867 78.3394 17.7267 77.7394 18.78C77.1527 19.82 76.2994 20.62 75.1794 21.18C74.0727 21.7267 72.7594 22 71.2394 22H66.8994V8.06H71.2394ZM71.2394 20.5C73.0394 20.5 74.4127 20.0267 75.3594 19.08C76.306 18.12 76.7794 16.78 76.7794 15.06C76.7794 13.3267 76.2994 11.9733 75.3394 11C74.3927 10.0267 73.026 9.54 71.2394 9.54H68.7194V20.5H71.2394ZM81.98 9.26C81.6333 9.26 81.34 9.14 81.1 8.9C80.86 8.66 80.74 8.36667 80.74 8.02C80.74 7.67333 80.86 7.38 81.1 7.14C81.34 6.9 81.6333 6.78 81.98 6.78C82.3133 6.78 82.5933 6.9 82.82 7.14C83.06 7.38 83.18 7.67333 83.18 8.02C83.18 8.36667 83.06 8.66 82.82 8.9C82.5933 9.14 82.3133 9.26 81.98 9.26ZM82.86 11.04V22H81.04V11.04H82.86ZM90.4819 10.86C91.4285 10.86 92.2552 11.0667 92.9619 11.48C93.6819 11.8933 94.2152 12.4133 94.5619 13.04V11.04H96.4019V22.24C96.4019 23.24 96.1885 24.1267 95.7619 24.9C95.3352 25.6867 94.7219 26.3 93.9219 26.74C93.1352 27.18 92.2152 27.4 91.1619 27.4C89.7219 27.4 88.5219 27.06 87.5619 26.38C86.6019 25.7 86.0352 24.7733 85.8619 23.6H87.6619C87.8619 24.2667 88.2752 24.8 88.9019 25.2C89.5285 25.6133 90.2819 25.82 91.1619 25.82C92.1619 25.82 92.9752 25.5067 93.6019 24.88C94.2419 24.2533 94.5619 23.3733 94.5619 22.24V19.94C94.2019 20.58 93.6685 21.1133 92.9619 21.54C92.2552 21.9667 91.4285 22.18 90.4819 22.18C89.5085 22.18 88.6219 21.94 87.8219 21.46C87.0352 20.98 86.4152 20.3067 85.9619 19.44C85.5085 18.5733 85.2819 17.5867 85.2819 16.48C85.2819 15.36 85.5085 14.38 85.9619 13.54C86.4152 12.6867 87.0352 12.0267 87.8219 11.56C88.6219 11.0933 89.5085 10.86 90.4819 10.86ZM94.5619 16.5C94.5619 15.6733 94.3952 14.9533 94.0619 14.34C93.7285 13.7267 93.2752 13.26 92.7019 12.94C92.1419 12.6067 91.5219 12.44 90.8419 12.44C90.1619 12.44 89.5419 12.6 88.9819 12.92C88.4219 13.24 87.9752 13.7067 87.6419 14.32C87.3085 14.9333 87.1419 15.6533 87.1419 16.48C87.1419 17.32 87.3085 18.0533 87.6419 18.68C87.9752 19.2933 88.4219 19.7667 88.9819 20.1C89.5419 20.42 90.1619 20.58 90.8419 20.58C91.5219 20.58 92.1419 20.42 92.7019 20.1C93.2752 19.7667 93.7285 19.2933 94.0619 18.68C94.3952 18.0533 94.5619 17.3267 94.5619 16.5ZM100.418 9.26C100.071 9.26 99.7775 9.14 99.5375 8.9C99.2975 8.66 99.1775 8.36667 99.1775 8.02C99.1775 7.67333 99.2975 7.38 99.5375 7.14C99.7775 6.9 100.071 6.78 100.418 6.78C100.751 6.78 101.031 6.9 101.258 7.14C101.498 7.38 101.618 7.67333 101.618 8.02C101.618 8.36667 101.498 8.66 101.258 8.9C101.031 9.14 100.751 9.26 100.418 9.26ZM101.298 11.04V22H99.4775V11.04H101.298ZM106.619 12.54V19C106.619 19.5333 106.733 19.9133 106.959 20.14C107.186 20.3533 107.579 20.46 108.139 20.46H109.479V22H107.839C106.826 22 106.066 21.7667 105.559 21.3C105.053 20.8333 104.799 20.0667 104.799 19V12.54H103.379V11.04H104.799V8.28H106.619V11.04H109.479V12.54H106.619ZM111.005 16.48C111.005 15.36 111.231 14.38 111.685 13.54C112.138 12.6867 112.758 12.0267 113.545 11.56C114.345 11.0933 115.231 10.86 116.205 10.86C117.165 10.86 117.998 11.0667 118.705 11.48C119.411 11.8933 119.938 12.4133 120.285 13.04V11.04H122.125V22H120.285V19.96C119.925 20.6 119.385 21.1333 118.665 21.56C117.958 21.9733 117.131 22.18 116.185 22.18C115.211 22.18 114.331 21.94 113.545 21.46C112.758 20.98 112.138 20.3067 111.685 19.44C111.231 18.5733 111.005 17.5867 111.005 16.48ZM120.285 16.5C120.285 15.6733 120.118 14.9533 119.785 14.34C119.451 13.7267 118.998 13.26 118.425 12.94C117.865 12.6067 117.245 12.44 116.565 12.44C115.885 12.44 115.265 12.6 114.705 12.92C114.145 13.24 113.698 13.7067 113.365 14.32C113.031 14.9333 112.865 15.6533 112.865 16.48C112.865 17.32 113.031 18.0533 113.365 18.68C113.698 19.2933 114.145 19.7667 114.705 20.1C115.265 20.42 115.885 20.58 116.565 20.58C117.245 20.58 117.865 20.42 118.425 20.1C118.998 19.7667 119.451 19.2933 119.785 18.68C120.118 18.0533 120.285 17.3267 120.285 16.5ZM127.02 7.2V22H125.2V7.2H127.02Z" fill="black"/>
</g>
<defs>
<clipPath id="clip0_1515_662">
<rect width="140" height="29" fill="white"/>
</clipPath>
</defs>
</svg>
